<svg xmlns="http://www.w3.org/2000/svg" width="24" height="24" viewBox="0 0 24 24">
  <defs>
    <style>
      .cls-1 {
        fill: none;
        opacity: 0;
      }

      .cls-2 {
        fill: #effff1;
      }
    </style>
  </defs>
  <g id="vuesax_bold_archive-book" data-name="vuesax/bold/archive-book" transform="translate(-684 -316)">
    <g id="archive-book">
      <path id="Vector" class="cls-1" d="M0,0H24V24H0Z" transform="translate(708 340) rotate(180)"/>
      <path id="Vector-2" data-name="Vector" class="cls-2" d="M5.86.5V6.4a.5.5,0,0,1-.84.37L3.27,5.16a.5.5,0,0,0-.68,0L.84,6.76A.5.5,0,0,1,0,6.4V.5A.5.5,0,0,1,.5,0H5.36A.5.5,0,0,1,5.86.5Z" transform="translate(693.07 318)"/>
      <path id="Vector-3" data-name="Vector" class="cls-2" d="M13.98,0a.5.5,0,0,0-.55.5v6.02a1.917,1.917,0,0,1-3.22,1.41l-.87-.8a.5.5,0,0,0-.68,0l-.87.8a1.919,1.919,0,0,1-2.07.35,1.927,1.927,0,0,1-1.15-1.76V.5A.5.5,0,0,0,4.02,0C1.22.354,0,2.244,0,4.944v10c0,3,1.5,5,5,5h8c3.5,0,5-2,5-5v-10C18,2.244,16.78.354,13.98,0Zm.52,16.69H6a.75.75,0,1,1,0-1.5h8.5a.75.75,0,1,1,0,1.5Zm0-4H10.25a.75.75,0,0,1,0-1.5H14.5a.75.75,0,0,1,0,1.5Z" transform="translate(687 318.056)"/>
    </g>
  </g>
</svg>
